<svg xmlns="http://www.w3.org/2000/svg" width="11" height="26.199" viewBox="0 0 11 26.199">
<path fill="#27292d" d="M16.5,6.954v13.7c0,2.632-1.79,4.763-4,4.763s-4-2.132-4-4.763V5.763A2.771,2.771,0,0,1,11,2.786a2.771,2.771,0,0,1,2.5,2.977v12.5a1.111,1.111,0,0,1-1,1.191,1.111,1.111,0,0,1-1-1.191V6.954H10V18.268a2.771,2.771,0,0,0,2.5,2.977A2.771,2.771,0,0,0,15,18.268V5.763C15,3.132,13.21,1,11,1S7,3.132,7,5.763V20.649c0,3.62,2.46,6.55,5.5,6.55s5.5-2.93,5.5-6.55V6.954Z" transform="translate(-7 -1)" />
</svg>